HIERARCHY
ROOT Hips
{
	OFFSET 0.00000 0.00000 0.00000
	CHANNELS 6 Xposition Yposition Zposition Zrotation Yrotation Xrotation 
	JOINT LHipJoint
	{
		OFFSET 0 0 0
		CHANNELS 3 Zrotation Yrotation Xrotation
		JOINT LeftUpLeg
		{
			OFFSET 1.57338 -1.94743 0.52196
			CHANNELS 3 Zrotation Yrotation Xrotation
			JOINT LeftLeg
			{
				OFFSET 2.60333 -7.15259 0.00000
				CHANNELS 3 Zrotation Yrotation Xrotation
				JOINT LeftFoot
				{
					OFFSET 2.77855 -7.63400 0.00000
					CHANNELS 3 Zrotation Yrotation Xrotation
					JOINT LeftToeBase
					{
						OFFSET 0.19847 -0.54529 2.28466
						CHANNELS 3 Zrotation Yrotation Xrotation
						End Site
						{
							OFFSET 0.00000 -0.00000 1.17993
						}
					}
				}
			}
		}
	}
	JOINT RHipJoint
	{
		OFFSET 0 0 0
		CHANNELS 3 Zrotation Yrotation Xrotation
		JOINT RightUpLeg
		{
			OFFSET -1.61527 -1.94743 0.52196
			CHANNELS 3 Zrotation Yrotation Xrotation
			JOINT RightLeg
			{
				OFFSET -2.53829 -6.97390 0.00000
				CHANNELS 3 Zrotation Yrotation Xrotation
				JOINT RightFoot
				{
					OFFSET -2.80762 -7.71387 0.00000
					CHANNELS 3 Zrotation Yrotation Xrotation
					JOINT RightToeBase
					{
						OFFSET -0.30536 -0.83898 2.28801
						CHANNELS 3 Zrotation Yrotation Xrotation
						End Site
						{
							OFFSET -0.00000 -0.00000 1.21323
						}
					}
				}
			}
		}
	}
	JOINT LowerBack
	{
		OFFSET 0 0 0
		CHANNELS 3 Zrotation Yrotation Xrotation
		JOINT Spine
		{
			OFFSET -0.04381 1.99497 -0.19778
			CHANNELS 3 Zrotation Yrotation Xrotation
			JOINT Spine1
			{
				OFFSET -0.01959 2.01295 -0.04372
				CHANNELS 3 Zrotation Yrotation Xrotation
				JOINT Neck
				{
					OFFSET 0 0 0
					CHANNELS 3 Zrotation Yrotation Xrotation
					JOINT Neck1
					{
						OFFSET -0.05459 1.76913 0.09708
						CHANNELS 3 Zrotation Yrotation Xrotation
						JOINT Head
						{
							OFFSET 0.09461 1.77368 -0.11172
							CHANNELS 3 Zrotation Yrotation Xrotation
							End Site
							{
								OFFSET 0.03812 1.78157 -0.04834
							}
						}
					}
				}
				JOINT LeftShoulder
				{
					OFFSET 0 0 0
					CHANNELS 3 Zrotation Yrotation Xrotation
					JOINT LeftArm
					{
						OFFSET 3.50922 1.24034 -0.28866
						CHANNELS 3 Zrotation Yrotation Xrotation
						JOINT LeftForeArm
						{
							OFFSET 5.40188 -0.00000 0.00000
							CHANNELS 3 Zrotation Yrotation Xrotation
							JOINT LeftHand
							{
								OFFSET 3.68559 -0.00000 0.00000
								CHANNELS 3 Zrotation Yrotation Xrotation
								JOINT LeftFingerBase
								{
									OFFSET 0 0 0
									CHANNELS 3 Zrotation Yrotation Xrotation
									JOINT LeftHandIndex1
									{
										OFFSET 0.61753 -0.00000 0.00000
										CHANNELS 3 Zrotation Yrotation Xrotation
										End Site
										{
											OFFSET 0.49787 -0.00000 0.00000
										}
									}
								}
								JOINT LThumb
								{
									OFFSET 0 0 0
									CHANNELS 3 Zrotation Yrotation Xrotation
									End Site
									{
										OFFSET 0.50547 -0.00000 0.50547
									}
								}
							}
						}
					}
				}
				JOINT RightShoulder
				{
					OFFSET 0 0 0
					CHANNELS 3 Zrotation Yrotation Xrotation
					JOINT RightArm
					{
						OFFSET -2.95373 1.39649 -0.27346
						CHANNELS 3 Zrotation Yrotation Xrotation
						JOINT RightForeArm
						{
							OFFSET -6.10670 -0.00000 -0.00000
							CHANNELS 3 Zrotation Yrotation Xrotation
							JOINT RightHand
							{
								OFFSET -3.63052 -0.00000 0.00000
								CHANNELS 3 Zrotation Yrotation Xrotation
								JOINT RightFingerBase
								{
									OFFSET 0 0 0
									CHANNELS 3 Zrotation Yrotation Xrotation
									JOINT RightHandIndex1
									{
										OFFSET -0.58385 -0.00000 0.00000
										CHANNELS 3 Zrotation Yrotation Xrotation
										End Site
										{
											OFFSET -0.47071 -0.00000 0.00000
										}
									}
								}
								JOINT RThumb
								{
									OFFSET 0 0 0
									CHANNELS 3 Zrotation Yrotation Xrotation
									End Site
									{
										OFFSET -0.47790 -0.00000 0.47790
									}
								}
							}
						}
					}
				}
			}
		}
	}
}
MOTION
Frames: 15
Frame Time: .0083333
-13.8396 18.7285 -0.5403 0 0 0 0 0 0 -21 0 0 0 0 0 0 0 0 0 0 0 0 0 0 21 0 0 0 0 0 0 0 0 0 0 0 0 0 0 0 0 0 0 0 0 0 0 -16 0 0 21 0 0 11 0 0 0 -8 0 0 0 0 0 0 0 0 0 0 0 0 0 0 0 0 0 0 0 0 8 0 0 0 0 0 0 0 0 0 0 0 0 0 0 0 0 0
-13.8396 18.7285 -0.5403 1.0682 -14.2390 2.4086 0.0000 0.0000 0.0000 -18.9095 -10.2432 -1.9853 1.2764 7.1600 20.1902 0.6186 11.5588 -23.1944 0.0987 -2.0256 -5.5765 0.0000 0.0000 0.0000 23.8356 21.7721 -0.7538 -1.5652 -7.8947 22.3947 -0.7499 1.8843 -15.8290 -0.0774 -1.7941 4.9371 -1.9215 -0.9473 2.2608 -0.1097 -1.3259 -0.8509 1.0174 -0.6368 -2.0991 -9.6086 -3.7233 -10.3025 7.7178 -4.8294 16.3759 3.6506 -2.2796 7.1219 -0.0000 -0.0000 0.0000 -89.5531 -0.5939 1.9981 9.8951 -16.5754 -1.4449 -0.0000 -0.0000 10.3302 24.1453 21.0224 9.1355 -7.1250 0.0000 -0.0000 -4.6487 52.7596 -0.8892 -0.0000 -0.0000 0.0000 82.9940 -3.7901 19.6625 -13.9765 22.7011 -2.8190 0.0000 0.0000 19.3544 -22.4761 -1.6483 0.6818 7.1250 -0.0000 -0.0000 3.2910 -31.7528 1.0680
-13.8459 18.7273 -0.5376 1.1507 -14.0998 2.3522 0.0000 0.0000 0.0000 -18.9663 -10.2070 -1.9168 1.2676 7.1363 20.1197 0.6118 11.4681 -23.0427 0.0843 -1.8733 -5.1557 0.0000 0.0000 0.0000 23.8004 21.7657 -0.7122 -1.5737 -7.9150 22.4563 -0.7588 1.7962 -15.9458 -0.0850 -1.8808 5.1764 -1.9432 -0.9542 2.2506 -0.1530 -1.3353 -0.7684 0.9843 -0.6430 -2.0088 -9.5069 -3.7109 -10.5157 7.6424 -4.8011 16.4658 3.6101 -2.2616 7.1818 0.0000 0.0000 0.0000 -89.5236 -0.7222 2.1351 9.9446 -16.6529 -1.4590 -0.0000 -0.0000 10.3435 24.0083 20.8988 9.0279 -7.1250 0.0000 -0.0000 -4.7522 52.6032 -0.8908 0.0000 0.0000 0.0000 83.0510 -3.6482 19.4630 -13.9595 22.6768 -2.8125 0.0000 0.0000 19.8472 -23.2138 -0.3056 0.1311 7.1250 -0.0000 -0.0000 2.6507 -30.3067 0.9517
-13.8512 18.7254 -0.5326 1.1882 -13.9796 2.3194 0.0000 0.0000 0.0000 -18.9775 -10.2989 -1.8800 1.2759 7.1587 20.1863 0.6562 11.1994 -23.1743 0.0562 -1.5302 -4.2091 0.0000 0.0000 0.0000 23.7953 21.7280 -0.6201 -1.5659 -7.8963 22.3996 -0.7621 1.7409 -15.9946 -0.0913 -1.9488 5.3641 -1.9006 -0.9824 2.2200 -0.1833 -1.3705 -0.7069 0.9294 -0.6625 -1.9291 -9.4262 -3.6614 -10.7112 7.5890 -4.7253 16.5786 3.5857 -2.2210 7.2427 0.0000 0.0000 0.0000 -89.5280 -0.8125 2.1597 10.0129 -16.7598 -1.4787 -0.0000 -0.0000 10.2654 24.0422 20.8406 9.0183 -7.1250 0.0000 -0.0000 -4.7008 52.5478 -0.8748 0.0000 0.0000 0.0000 83.0999 -3.5110 19.4418 -13.8638 22.5397 -2.7757 0.0000 0.0000 19.7436 -23.6050 0.4367 -0.1908 7.1250 -0.0000 -0.0000 2.3228 -29.4995 0.8785
-13.8578 18.7229 -0.5303 1.0294 -13.9318 2.3543 0.0000 0.0000 0.0000 -18.7515 -10.4357 -1.8372 1.2806 7.1713 20.2239 0.7412 10.7793 -23.5204 0.0207 -0.9281 -2.5510 0.0000 0.0000 0.0000 24.0050 21.7929 -0.5737 -1.5664 -7.8975 22.4032 -0.7629 1.6486 -16.0247 -0.0904 -1.9396 5.3387 -1.7044 -0.9572 2.2135 -0.1466 -1.3300 -0.6925 0.8554 -0.6446 -1.9153 -9.3931 -3.6694 -10.7369 7.5421 -4.7318 16.5913 3.5637 -2.2254 7.2501 0.0000 -0.0000 0.0000 -89.5521 -0.7966 2.3332 10.1209 -16.9285 -1.5100 -0.0000 -0.0000 10.0606 24.0955 20.7998 9.0239 -7.1250 0.0000 -0.0000 -4.6348 52.5144 -0.8587 0.0000 -0.0000 0.0000 83.1212 -3.3996 19.3507 -13.7608 22.3918 -2.7363 0.0000 0.0000 19.8651 -23.4512 -0.0940 0.0408 7.1250 -0.0000 -0.0000 2.4571 -30.0776 0.8955
-13.8643 18.7210 -0.5299 0.9143 -13.8982 2.3868 0.0000 0.0000 0.0000 -18.5715 -10.2975 -1.9329 1.2869 7.1883 20.2746 0.7413 10.6357 -23.3872 0.0229 -0.9764 -2.6839 0.0000 0.0000 0.0000 24.1746 21.8823 -0.5212 -1.5661 -7.8969 22.4015 -0.7651 1.5406 -16.0753 -0.0894 -1.9284 5.3079 -1.5501 -0.9284 2.2402 -0.1116 -1.2873 -0.7264 0.8042 -0.6243 -1.9688 -9.4815 -3.6427 -10.7857 7.6152 -4.6977 16.7737 3.6078 -2.2082 7.3186 -0.0000 0.0000 0.0000 -89.5415 -0.6694 2.7034 10.2447 -17.1214 -1.5462 -0.0000 -0.0000 9.6650 24.1178 20.8898 9.0699 -7.1250 0.0000 -0.0000 -4.6381 52.6140 -0.8706 -0.0000 0.0000 0.0000 83.1029 -3.4129 19.2960 -13.6774 22.2717 -2.7047 0.0000 0.0000 20.0906 -23.2617 -0.9907 0.4258 7.1250 -0.0000 -0.0000 2.6358 -31.0518 0.8993
-13.8688 18.7180 -0.5303 1.0019 -13.8547 2.3393 0.0000 0.0000 0.0000 -18.6458 -10.0036 -2.0464 1.2902 7.1972 20.3010 0.6776 10.8088 -22.9878 0.0663 -1.6613 -4.5706 0.0000 0.0000 0.0000 24.1150 21.9010 -0.4713 -1.5648 -7.8938 22.3919 -0.7659 1.4537 -16.1055 -0.0699 -1.7055 4.6925 -1.5917 -0.9038 2.3600 -0.1188 -1.2590 -0.7967 0.8220 -0.6081 -2.1082 -9.5524 -3.5460 -10.6947 7.6426 -4.5723 16.9122 3.6442 -2.1530 7.3379 -0.0000 0.0000 0.0000 -89.5605 -0.4660 3.0024 10.3663 -17.3105 -1.5822 -0.0000 -0.0000 9.2793 24.1104 20.8765 9.0614 -7.1250 0.0000 -0.0000 -4.6417 52.5985 -0.8695 -0.0000 0.0000 0.0000 83.0563 -3.5987 19.3631 -13.6274 22.1996 -2.6857 0.0000 0.0000 19.7547 -23.8917 -0.3157 0.1398 7.1250 -0.0000 -0.0000 2.1151 -30.3214 0.7584
-13.8748 18.7172 -0.5290 1.0398 -13.7669 2.3017 0.0000 0.0000 0.0000 -18.6357 -10.0943 -2.0505 1.2948 7.2096 20.3379 0.7074 10.6343 -23.0877 0.0606 -1.5882 -4.3690 0.0000 0.0000 0.0000 24.1181 21.8747 -0.4410 -1.5710 -7.9087 22.4370 -0.7737 1.4279 -16.1958 -0.0857 -1.8879 5.1960 -1.5814 -0.8766 2.4002 -0.1365 -1.2234 -0.7925 0.7974 -0.5905 -2.1280 -9.4910 -3.4747 -10.5692 7.5593 -4.4774 16.8520 3.6164 -2.1131 7.2839 0.0000 -0.0000 0.0000 -89.5278 -0.4309 3.2588 10.4478 -17.4369 -1.6065 -0.0000 -0.0000 9.0053 24.0772 20.8971 9.0559 -7.1250 0.0000 -0.0000 -4.6816 52.6141 -0.8788 0.0000 -0.0000 0.0000 83.1116 -3.6723 19.2674 -13.4685 21.9697 -2.6260 0.0000 0.0000 18.7568 -25.5473 2.1347 -1.0200 7.1250 -0.0000 -0.0000 0.7991 -27.6137 0.3377
-13.8829 18.7209 -0.5273 1.1217 -13.6525 2.2639 0.0000 0.0000 0.0000 -18.6239 -10.8221 -1.8859 1.2955 7.2114 20.3432 0.8511 10.0173 -23.7756 0.0021 -0.2926 -0.8039 0.0000 0.0000 0.0000 24.0893 21.8852 -0.4170 -1.5819 -7.9348 22.5163 -0.7811 1.3395 -16.2985 -0.0912 -1.9479 5.3616 -1.6445 -0.8670 2.3986 -0.1756 -1.2130 -0.7527 0.7917 -0.5853 -2.0861 -9.3425 -3.4032 -10.5810 7.4776 -4.3884 16.8423 3.5733 -2.0676 7.2693 -0.0000 0.0000 0.0000 -89.4517 -0.4719 3.5049 10.5226 -17.5529 -1.6290 -0.0000 -0.0000 8.7966 24.0921 21.0130 9.1093 -7.1250 0.0000 -0.0000 -4.7003 52.7398 -0.8968 -0.0000 0.0000 0.0000 83.1946 -3.6749 19.0545 -13.6773 22.2715 -2.7046 0.0000 0.0000 20.0948 -23.9074 -0.2360 0.1046 7.1250 -0.0000 -0.0000 2.1007 -30.2344 0.7576
-13.8907 18.7139 -0.5265 1.0412 -13.5900 2.3076 0.0000 0.0000 0.0000 -18.4716 -10.0413 -2.0897 1.2950 7.2102 20.3395 0.7746 9.9402 -23.0458 0.0393 -1.2793 -3.5175 0.0000 0.0000 0.0000 24.2241 21.9701 -0.4355 -1.5919 -7.9587 22.5886 -0.7810 1.2075 -16.3324 -0.0971 -2.0093 5.5312 -1.5589 -0.8526 2.3815 -0.1579 -1.1903 -0.7469 0.7607 -0.5751 -2.0724 -9.2358 -3.3118 -10.5774 7.4091 -4.2692 16.8490 3.5450 -2.0096 7.2560 0.0000 -0.0000 0.0000 -89.3871 -0.4324 3.8237 10.6455 -17.7428 -1.6663 -0.0000 -0.0000 8.4215 24.0726 20.8287 9.0261 -7.1250 0.0000 -0.0000 -4.6665 52.5408 -0.8676 0.0000 -0.0000 0.0000 83.2284 -3.6183 18.9927 -13.6552 22.2396 -2.6962 0.0000 0.0000 20.5436 -23.1846 -1.1759 0.5036 7.1250 -0.0000 -0.0000 2.7041 -31.2522 0.9097
-13.8977 18.7093 -0.5255 1.0375 -13.5315 2.3533 0.0000 0.0000 0.0000 -18.3819 -9.7634 -2.2699 1.2991 7.2210 20.3718 0.7785 9.6617 -22.8337 0.0499 -1.4409 -3.9628 0.0000 0.0000 0.0000 24.2533 22.0316 -0.5067 -1.6060 -7.9920 22.6897 -0.7857 1.1540 -16.3965 -0.0977 -2.0160 5.5498 -1.5321 -0.8242 2.2999 -0.1405 -1.1493 -0.7146 0.7601 -0.5556 -1.9945 -9.1985 -3.2265 -10.6101 7.3167 -4.1390 16.8806 3.5212 -1.9520 7.2578 0.0000 -0.0000 0.0000 -89.4207 -0.4842 3.8869 10.7561 -17.9135 -1.7002 -0.0000 -0.0000 8.3539 23.9963 20.7117 8.9469 -7.1250 0.0000 -0.0000 -4.7103 52.4027 -0.8598 0.0000 -0.0000 0.0000 83.1871 -3.5051 19.0733 -13.5906 22.1465 -2.6718 0.0000 0.0000 20.4710 -22.9016 -1.4908 0.6297 7.1250 -0.0000 -0.0000 2.9430 -31.5896 0.9664
-13.9036 18.7071 -0.5230 1.0729 -13.4604 2.3210 0.0000 0.0000 0.0000 -18.3332 -9.9616 -2.3533 1.3098 7.2495 20.4566 0.8237 9.3897 -22.9967 0.0224 -0.9668 -2.6575 0.0000 0.0000 0.0000 24.2477 21.9923 -0.5402 -1.6242 -8.0349 22.8202 -0.7947 1.1498 -16.4943 -0.0942 -1.9798 5.4498 -1.4805 -0.7923 2.2493 -0.1681 -1.1043 -0.6743 0.6999 -0.5347 -1.9273 -9.1731 -3.1281 -10.5900 7.2428 -4.0003 16.9783 3.5077 -1.8911 7.2715 0.0000 -0.0000 0.0000 -89.3817 -0.4955 4.0195 10.8634 -18.0786 -1.7333 -0.0000 -0.0000 8.1775 23.8211 20.6043 8.8312 -7.1250 0.0000 -0.0000 -4.8570 52.2569 -0.8693 0.0000 -0.0000 0.0000 83.2107 -3.4977 19.1934 -13.5377 22.0700 -2.6519 0.0000 0.0000 20.0349 -23.2611 -0.9412 0.4046 7.1250 -0.0000 -0.0000 2.6345 -30.9981 0.9023
-13.9092 18.7012 -0.5180 1.1119 -13.3887 2.2539 0.0000 0.0000 0.0000 -18.3377 -9.2878 -2.4399 1.3202 7.2772 20.5391 0.7798 9.2508 -22.4875 0.0718 -1.7292 -4.7578 0.0000 0.0000 0.0000 24.2564 21.9325 -0.5031 -1.6366 -8.0641 22.9090 -0.8045 1.1736 -16.5913 -0.0933 -1.9700 5.4228 -1.4084 -0.7455 2.2228 -0.2117 -1.0397 -0.6267 0.6116 -0.5042 -1.8671 -9.1364 -3.0487 -10.6365 7.1520 -3.8844 17.1569 3.4847 -1.8411 7.3250 0.0000 -0.0000 0.0000 -89.3220 -0.4537 4.1988 11.0126 -18.3075 -1.7799 -0.0000 -0.0000 7.8975 23.8945 20.5693 8.8472 -7.1250 0.0000 -0.0000 -4.7727 52.2333 -0.8514 0.0000 -0.0000 0.0000 83.2549 -3.5538 19.2911 -13.4665 21.9670 -2.6252 0.0000 0.0000 19.1853 -24.3503 0.7208 -0.3262 7.1250 -0.0000 -0.0000 1.7340 -29.1866 0.6685
-13.9161 18.6944 -0.5147 1.0735 -13.3035 2.1748 0.0000 0.0000 0.0000 -18.2187 -8.9065 -2.5157 1.3344 7.3145 20.6505 0.7939 8.9178 -22.3297 0.0956 -1.9935 -5.4878 0.0000 0.0000 0.0000 24.3558 21.8363 -0.4660 -1.6520 -8.1002 23.0187 -0.8117 1.2164 -16.6550 -0.0972 -2.0105 5.5348 -1.3406 -0.7082 2.2866 -0.2104 -0.9887 -0.5971 0.5737 -0.4796 -1.8747 -9.0417 -2.9413 -10.6095 7.0674 -3.7439 17.2503 3.4562 -1.7760 7.3347 0.0000 0.0000 0.0000 -89.2946 -0.4042 4.2571 11.1399 -18.5023 -1.8201 -0.0000 -0.0000 7.7377 23.8546 20.6046 8.8451 -7.1250 0.0000 -0.0000 -4.8232 52.2633 -0.8640 0.0000 0.0000 0.0000 83.2955 -3.6694 19.3617 -13.5476 22.0843 -2.6556 0.0000 0.0000 19.0648 -24.6131 0.5428 -0.2487 7.1250 -0.0000 -0.0000 1.5307 -29.3812 0.5830
-13.9249 18.6922 -0.5177 0.9579 -13.2259 2.1840 0.0000 0.0000 0.0000 -17.9191 -9.0821 -2.6648 1.3539 7.3658 20.8037 0.9129 8.0906 -22.7144 0.0288 -1.0963 -3.0139 0.0000 0.0000 0.0000 24.5431 21.8883 -0.4971 -1.6724 -8.1474 23.1628 -0.8218 1.1097 -16.7900 -0.0828 -1.8566 5.1095 -1.2545 -0.6773 2.3848 -0.1693 -0.9458 -0.6173 0.5675 -0.4584 -1.9520 -8.9144 -2.8010 -10.4716 6.9635 -3.5659 17.2551 3.4191 -1.6941 7.2918 -0.0000 -0.0000 0.0000 -89.2511 -0.3428 4.3634 11.2569 -18.6810 -1.8574 -0.0000 -0.0000 7.5350 23.8027 20.5081 8.7849 -7.1250 0.0000 -0.0000 -4.8480 52.1518 -0.8552 -0.0000 -0.0000 0.0000 83.2895 -3.8025 19.5186 -13.7491 22.3749 -2.7319 0.0000 0.0000 19.6547 -23.7125 -0.6875 0.3020 7.1250 -0.0000 -0.0000 2.2674 -30.7264 0.7911
